<?xml version="1.0" encoding="UTF-8" standalone="no"?>
<!DOCTYPE svg PUBLIC "-//W3C//DTD SVG 1.1//EN"
 "http://www.w3.org/Graphics/SVG/1.1/DTD/svg11.dtd">
<!-- Generated by graphviz version 12.2.1 (20241206.2353)
 -->
<!-- Title: BlueDogViews::requirements Pages: 1 -->
<svg width="2799pt" height="413pt"
 viewBox="0.00 0.00 2798.88 413.00" xmlns="http://www.w3.org/2000/svg" xmlns:xlink="http://www.w3.org/1999/xlink">
<g id="graph0" class="graph" transform="scale(1 1) rotate(0) translate(4 409)">
<title>BlueDogViews::requirements</title>
<polygon fill="white" stroke="none" points="-4,4 -4,-409 2794.88,-409 2794.88,4 -4,4"/>
<!-- n0 -->
<g id="node1" class="node">
<title>n0</title>
<path fill="white" stroke="#181818" stroke-width="0.5" d="M970.75,-405C970.75,-405 573.75,-405 573.75,-405 567.75,-405 561.75,-399 561.75,-393 561.75,-393 561.75,-381 561.75,-381 561.75,-375 567.75,-369 573.75,-369 573.75,-369 970.75,-369 970.75,-369 976.75,-369 982.75,-375 982.75,-381 982.75,-381 982.75,-393 982.75,-393 982.75,-399 976.75,-405 970.75,-405"/>
<text text-anchor="start" x="741.5" y="-390.5" font-family="Helvetica,sans-Serif" font-style="italic" font-size="10.00">«requirement»</text>
<text text-anchor="start" x="569.75" y="-376.7" font-family="Helvetica,sans-Serif" font-weight="bold" font-size="14.00">GorgeChallenge::transGorgeChallenge : TransGorgeChallenge</text>
</g>
<!-- n1 -->
<g id="node2" class="node">
<title>n1</title>
<path fill="white" stroke="#181818" stroke-width="0.5" d="M1074.62,-318C1074.62,-318 715.88,-318 715.88,-318 709.88,-318 703.88,-312 703.88,-306 703.88,-306 703.88,-294 703.88,-294 703.88,-288 709.88,-282 715.88,-282 715.88,-282 1074.62,-282 1074.62,-282 1080.62,-282 1086.62,-288 1086.62,-294 1086.62,-294 1086.62,-306 1086.62,-306 1086.62,-312 1080.62,-318 1074.62,-318"/>
<text text-anchor="start" x="864.5" y="-303.5" font-family="Helvetica,sans-Serif" font-style="italic" font-size="10.00">«requirement»</text>
<text text-anchor="start" x="711.88" y="-289.7" font-family="Helvetica,sans-Serif" font-weight="bold" font-size="14.00">GorgeChallenge::courseCompletion : CourseCompletion</text>
</g>
<!-- n1&#45;&gt;n0 -->
<g id="edge1" class="edge">
<title>n1&#45;&gt;n0</title>
<path fill="none" stroke="#181818" stroke-dasharray="5,2" d="M870.65,-318C852.05,-330.85 826.3,-348.65 805.8,-362.81"/>
<polygon fill="#181818" stroke="#181818" points="797.81,-368.34 803.47,-358.95 800.92,-366.19 806.03,-362.65 806.03,-362.65 806.03,-362.65 800.92,-366.19 808.59,-366.36 797.81,-368.34"/>
<text text-anchor="middle" x="859.49" y="-338.65" font-family="Helvetica,sans-Serif" font-size="13.00">derive</text>
</g>
<!-- n2 -->
<g id="node3" class="node">
<title>n2</title>
<path fill="white" stroke="#181818" stroke-width="0.5" d="M2032.25,-318C2032.25,-318 1668.25,-318 1668.25,-318 1662.25,-318 1656.25,-312 1656.25,-306 1656.25,-306 1656.25,-294 1656.25,-294 1656.25,-288 1662.25,-282 1668.25,-282 1668.25,-282 2032.25,-282 2032.25,-282 2038.25,-282 2044.25,-288 2044.25,-294 2044.25,-294 2044.25,-306 2044.25,-306 2044.25,-312 2038.25,-318 2032.25,-318"/>
<text text-anchor="start" x="1819.5" y="-303.5" font-family="Helvetica,sans-Serif" font-style="italic" font-size="10.00">«requirement»</text>
<text text-anchor="start" x="1664.25" y="-289.7" font-family="Helvetica,sans-Serif" font-weight="bold" font-size="14.00">GorgeChallenge::repeatedOperation : RepeatedOperation</text>
</g>
<!-- n2&#45;&gt;n0 -->
<g id="edge2" class="edge">
<title>n2&#45;&gt;n0</title>
<path fill="none" stroke="#181818" stroke-dasharray="5,2" d="M1656.28,-316.29C1469.92,-330.99 1188.62,-353.17 993.59,-368.55"/>
<polygon fill="#181818" stroke="#181818" points="983.84,-369.32 993.45,-364.04 987.61,-369.02 993.81,-368.53 993.81,-368.53 993.81,-368.53 987.61,-369.02 994.16,-373.02 983.84,-369.32"/>
<text text-anchor="middle" x="1394.17" y="-338.65" font-family="Helvetica,sans-Serif" font-size="13.00">derive</text>
</g>
<!-- n3 -->
<g id="node4" class="node">
<title>n3</title>
<path fill="white" stroke="#181818" stroke-width="0.5" d="M1238.25,-264C1238.25,-264 874.25,-264 874.25,-264 868.25,-264 862.25,-258 862.25,-252 862.25,-252 862.25,-240 862.25,-240 862.25,-234 868.25,-228 874.25,-228 874.25,-228 1238.25,-228 1238.25,-228 1244.25,-228 1250.25,-234 1250.25,-240 1250.25,-240 1250.25,-252 1250.25,-252 1250.25,-258 1244.25,-264 1238.25,-264"/>
<text text-anchor="start" x="1025.5" y="-249.5" font-family="Helvetica,sans-Serif" font-style="italic" font-size="10.00">«requirement»</text>
<text text-anchor="start" x="870.25" y="-235.7" font-family="Helvetica,sans-Serif" font-weight="bold" font-size="14.00">GorgeChallenge::unassistedAttempt : UnassistedAttempt</text>
</g>
<!-- n3&#45;&gt;n0 -->
<g id="edge3" class="edge">
<title>n3&#45;&gt;n0</title>
<path fill="none" stroke="#181818" stroke-dasharray="5,2" d="M862.38,-263.71C761.54,-272.46 658.98,-281.48 658.5,-282 630.48,-312.6 678.14,-344.29 720.08,-364.52"/>
<polygon fill="#181818" stroke="#181818" points="728.91,-368.64 717.94,-368.49 725.48,-367.04 719.85,-364.41 719.85,-364.41 719.85,-364.41 725.48,-367.04 721.75,-360.33 728.91,-368.64"/>
<text text-anchor="middle" x="676.88" y="-295.15" font-family="Helvetica,sans-Serif" font-size="13.00">derive</text>
</g>
<!-- n4 -->
<g id="node5" class="node">
<title>n4</title>
<path fill="white" stroke="#181818" stroke-width="0.5" d="M1462.25,-318C1462.25,-318 1116.25,-318 1116.25,-318 1110.25,-318 1104.25,-312 1104.25,-306 1104.25,-306 1104.25,-294 1104.25,-294 1104.25,-288 1110.25,-282 1116.25,-282 1116.25,-282 1462.25,-282 1462.25,-282 1468.25,-282 1474.25,-288 1474.25,-294 1474.25,-294 1474.25,-306 1474.25,-306 1474.25,-312 1468.25,-318 1462.25,-318"/>
<text text-anchor="start" x="1258.5" y="-303.5" font-family="Helvetica,sans-Serif" font-style="italic" font-size="10.00">«requirement»</text>
<text text-anchor="start" x="1112.25" y="-289.7" font-family="Helvetica,sans-Serif" font-weight="bold" font-size="14.00">GorgeChallenge::sailingPropulsion : SailingPropulsion</text>
</g>
<!-- n4&#45;&gt;n0 -->
<g id="edge4" class="edge">
<title>n4&#45;&gt;n0</title>
<path fill="none" stroke="#181818" stroke-dasharray="5,2" d="M1185.87,-318C1099.31,-332.23 975.93,-352.51 886.46,-367.22"/>
<polygon fill="#181818" stroke="#181818" points="876.65,-368.84 885.79,-362.77 880.38,-368.22 886.52,-367.21 886.52,-367.21 886.52,-367.21 880.38,-368.22 887.25,-371.65 876.65,-368.84"/>
<text text-anchor="middle" x="1080.08" y="-338.65" font-family="Helvetica,sans-Serif" font-size="13.00">derive</text>
</g>
<!-- n5 -->
<g id="node6" class="node">
<title>n5</title>
<path fill="white" stroke="#181818" stroke-width="0.5" d="M338.5,-264C338.5,-264 12,-264 12,-264 6,-264 0,-258 0,-252 0,-252 0,-240 0,-240 0,-234 6,-228 12,-228 12,-228 338.5,-228 338.5,-228 344.5,-228 350.5,-234 350.5,-240 350.5,-240 350.5,-252 350.5,-252 350.5,-258 344.5,-264 338.5,-264"/>
<text text-anchor="start" x="144.5" y="-249.5" font-family="Helvetica,sans-Serif" font-style="italic" font-size="10.00">«requirement»</text>
<text text-anchor="start" x="8" y="-235.7" font-family="Helvetica,sans-Serif" font-weight="bold" font-size="14.00">GorgeChallenge::liveObservation : LiveObservation</text>
</g>
<!-- n5&#45;&gt;n0 -->
<g id="edge5" class="edge">
<title>n5&#45;&gt;n0</title>
<path fill="none" stroke="#181818" stroke-dasharray="5,2" d="M241.64,-263.95C325.47,-285.18 474.21,-322.24 602.25,-351 626.09,-356.36 651.88,-361.83 676,-366.81"/>
<polygon fill="#181818" stroke="#181818" points="685.75,-368.82 675.05,-371.21 682.05,-368.05 675.96,-366.8 675.96,-366.8 675.96,-366.8 682.05,-368.05 676.86,-362.39 685.75,-368.82"/>
<text text-anchor="middle" x="477.71" y="-295.15" font-family="Helvetica,sans-Serif" font-size="13.00">derive</text>
</g>
<!-- n6 -->
<g id="node7" class="node">
<title>n6</title>
<path fill="white" stroke="#181818" stroke-width="0.5" d="M785.25,-264C785.25,-264 367.25,-264 367.25,-264 361.25,-264 355.25,-258 355.25,-252 355.25,-252 355.25,-240 355.25,-240 355.25,-234 361.25,-228 367.25,-228 367.25,-228 785.25,-228 785.25,-228 791.25,-228 797.25,-234 797.25,-240 797.25,-240 797.25,-252 797.25,-252 797.25,-258 791.25,-264 785.25,-264"/>
<text text-anchor="start" x="545.5" y="-249.5" font-family="Helvetica,sans-Serif" font-style="italic" font-size="10.00">«requirement»</text>
<text text-anchor="start" x="363.25" y="-235.7" font-family="Helvetica,sans-Serif" font-weight="bold" font-size="14.00">GorgeChallenge::emergencyIntervention : EmergencyIntervention</text>
</g>
<!-- n6&#45;&gt;n0 -->
<g id="edge6" class="edge">
<title>n6&#45;&gt;n0</title>
<path fill="none" stroke="#181818" stroke-dasharray="5,2" d="M576.27,-263.76C577.02,-279 580.04,-301.56 590.5,-318 603.77,-338.85 612.92,-340.41 635.25,-351 647.5,-356.81 660.84,-361.74 674.24,-365.9"/>
<polygon fill="#181818" stroke="#181818" points="683.8,-368.73 672.93,-370.21 680.17,-367.66 674.21,-365.9 674.21,-365.9 674.21,-365.9 680.17,-367.66 675.49,-361.58 683.8,-368.73"/>
<text text-anchor="middle" x="608.88" y="-295.15" font-family="Helvetica,sans-Serif" font-size="13.00">derive</text>
</g>
<!-- n7 -->
<g id="node8" class="node">
<title>n7</title>
<path fill="white" stroke="#181818" stroke-width="0.5" d="M1776.12,-405C1776.12,-405 1480.38,-405 1480.38,-405 1474.38,-405 1468.38,-399 1468.38,-393 1468.38,-393 1468.38,-381 1468.38,-381 1468.38,-375 1474.38,-369 1480.38,-369 1480.38,-369 1776.12,-369 1776.12,-369 1782.12,-369 1788.12,-375 1788.12,-381 1788.12,-381 1788.12,-393 1788.12,-393 1788.12,-399 1782.12,-405 1776.12,-405"/>
<text text-anchor="start" x="1597.5" y="-390.5" font-family="Helvetica,sans-Serif" font-style="italic" font-size="10.00">«requirement»</text>
<text text-anchor="start" x="1476.38" y="-376.7" font-family="Helvetica,sans-Serif" font-weight="bold" font-size="14.00">BlueDog::Goals::hawaiiVoyage : HawaiiVoyage</text>
</g>
<!-- n8 -->
<g id="node9" class="node">
<title>n8</title>
<path fill="white" stroke="#181818" stroke-width="0.5" d="M1418.12,-210C1418.12,-210 1128.38,-210 1128.38,-210 1122.38,-210 1116.38,-204 1116.38,-198 1116.38,-198 1116.38,-186 1116.38,-186 1116.38,-180 1122.38,-174 1128.38,-174 1128.38,-174 1418.12,-174 1418.12,-174 1424.12,-174 1430.12,-180 1430.12,-186 1430.12,-186 1430.12,-198 1430.12,-198 1430.12,-204 1424.12,-210 1418.12,-210"/>
<text text-anchor="start" x="1242.5" y="-195.5" font-family="Helvetica,sans-Serif" font-style="italic" font-size="10.00">«requirement»</text>
<text text-anchor="start" x="1124.38" y="-181.7" font-family="Helvetica,sans-Serif" font-weight="bold" font-size="14.00">BlueDogRequirements::roundTrip : RoundTrip</text>
</g>
<!-- n8&#45;&gt;n1 -->
<g id="edge7" class="edge">
<title>n8&#45;&gt;n1</title>
<path fill="none" stroke="#181818" stroke-dasharray="5,2" d="M1273.04,-209.96C1271.84,-226.48 1267.25,-250.95 1251.25,-264 1247.8,-266.81 1175.94,-274.14 1097.68,-281.36"/>
<polygon fill="#181818" stroke="#181818" points="1087.82,-282.27 1097.36,-276.87 1091.58,-281.92 1097.77,-281.35 1097.77,-281.35 1097.77,-281.35 1091.58,-281.92 1098.19,-285.83 1087.82,-282.27"/>
<text text-anchor="middle" x="1288.86" y="-241.15" font-family="Helvetica,sans-Serif" font-size="13.00">derive</text>
</g>
<!-- n8&#45;&gt;n4 -->
<g id="edge10" class="edge">
<title>n8&#45;&gt;n4</title>
<path fill="none" stroke="#181818" stroke-dasharray="5,2" d="M1297.56,-209.82C1303.09,-214.96 1308.22,-221.1 1311.25,-228 1317.68,-242.65 1315.68,-248.63 1311.25,-264 1310.42,-266.87 1309.28,-269.74 1307.95,-272.53"/>
<polygon fill="#181818" stroke="#181818" points="1303.12,-281.06 1304.13,-270.14 1304.98,-277.77 1308.04,-272.36 1308.04,-272.36 1308.04,-272.36 1304.98,-277.77 1311.96,-274.58 1303.12,-281.06"/>
<text text-anchor="middle" x="1333.73" y="-241.15" font-family="Helvetica,sans-Serif" font-size="13.00">derive</text>
</g>
<!-- n9 -->
<g id="node10" class="node">
<title>n9</title>
<path fill="white" stroke="#181818" stroke-width="0.5" d="M2526,-210C2526,-210 2112.5,-210 2112.5,-210 2106.5,-210 2100.5,-204 2100.5,-198 2100.5,-198 2100.5,-186 2100.5,-186 2100.5,-180 2106.5,-174 2112.5,-174 2112.5,-174 2526,-174 2526,-174 2532,-174 2538,-180 2538,-186 2538,-186 2538,-198 2538,-198 2538,-204 2532,-210 2526,-210"/>
<text text-anchor="start" x="2288.5" y="-195.5" font-family="Helvetica,sans-Serif" font-style="italic" font-size="10.00">«requirement»</text>
<text text-anchor="start" x="2108.5" y="-181.7" font-family="Helvetica,sans-Serif" font-weight="bold" font-size="14.00">BlueDogRequirements::multiDayEndurance : MultiDayEndurance</text>
</g>
<!-- n9&#45;&gt;n2 -->
<g id="edge8" class="edge">
<title>n9&#45;&gt;n2</title>
<path fill="none" stroke="#181818" stroke-dasharray="5,2" d="M2278.15,-209.9C2237.07,-226.13 2171.78,-250.16 2113.25,-264 2085.72,-270.51 2056.27,-275.9 2027.4,-280.35"/>
<polygon fill="#181818" stroke="#181818" points="2017.57,-281.83 2026.79,-275.89 2021.31,-281.27 2027.46,-280.34 2027.46,-280.34 2027.46,-280.34 2021.31,-281.27 2028.13,-284.79 2017.57,-281.83"/>
<text text-anchor="middle" x="2244.85" y="-241.15" font-family="Helvetica,sans-Serif" font-size="13.00">derive</text>
</g>
<!-- n9&#45;&gt;n7 -->
<g id="edge13" class="edge">
<title>n9&#45;&gt;n7</title>
<path fill="none" stroke="#181818" stroke-dasharray="5,2" d="M2310.21,-209.76C2301.08,-225.44 2285.7,-248.67 2267.25,-264 2198.6,-321.04 2172.46,-327.87 2086.25,-351 2033.47,-365.16 1905.95,-374.19 1798.83,-379.53"/>
<polygon fill="#181818" stroke="#181818" points="1789.09,-380 1798.86,-375.02 1792.87,-379.82 1799.08,-379.51 1799.08,-379.51 1799.08,-379.51 1792.87,-379.82 1799.3,-384.01 1789.09,-380"/>
<text text-anchor="middle" x="2262.17" y="-295.15" font-family="Helvetica,sans-Serif" font-size="13.00">derive</text>
</g>
<!-- n10 -->
<g id="node11" class="node">
<title>n10</title>
<path fill="white" stroke="#181818" stroke-width="0.5" d="M2778.88,-123C2778.88,-123 2385.62,-123 2385.62,-123 2379.62,-123 2373.62,-117 2373.62,-111 2373.62,-111 2373.62,-99 2373.62,-99 2373.62,-93 2379.62,-87 2385.62,-87 2385.62,-87 2778.88,-87 2778.88,-87 2784.88,-87 2790.88,-93 2790.88,-99 2790.88,-99 2790.88,-111 2790.88,-111 2790.88,-117 2784.88,-123 2778.88,-123"/>
<text text-anchor="start" x="2551.5" y="-108.5" font-family="Helvetica,sans-Serif" font-style="italic" font-size="10.00">«requirement»</text>
<text text-anchor="start" x="2381.62" y="-94.7" font-family="Helvetica,sans-Serif" font-weight="bold" font-size="14.00">BlueDogRequirements::energyAwareness : EnergyAwareness</text>
</g>
<!-- n10&#45;&gt;n9 -->
<g id="edge23" class="edge">
<title>n10&#45;&gt;n9</title>
<path fill="none" stroke="#181818" stroke-dasharray="5,2" d="M2529.66,-123C2487.19,-136.72 2427.31,-156.08 2382.28,-170.63"/>
<polygon fill="#181818" stroke="#181818" points="2372.91,-173.66 2381.04,-166.3 2376.51,-172.5 2382.42,-170.58 2382.42,-170.58 2382.42,-170.58 2376.51,-172.5 2383.81,-174.86 2372.91,-173.66"/>
<text text-anchor="middle" x="2484.87" y="-143.65" font-family="Helvetica,sans-Serif" font-size="13.00">derive</text>
</g>
<!-- n11 -->
<g id="node12" class="node">
<title>n11</title>
<path fill="white" stroke="#181818" stroke-width="0.5" d="M1457.38,-123C1457.38,-123 1013.12,-123 1013.12,-123 1007.12,-123 1001.12,-117 1001.12,-111 1001.12,-111 1001.12,-99 1001.12,-99 1001.12,-93 1007.12,-87 1013.12,-87 1013.12,-87 1457.38,-87 1457.38,-87 1463.38,-87 1469.38,-93 1469.38,-99 1469.38,-99 1469.38,-111 1469.38,-111 1469.38,-117 1463.38,-123 1457.38,-123"/>
<text text-anchor="start" x="1204.5" y="-108.5" font-family="Helvetica,sans-Serif" font-style="italic" font-size="10.00">«requirement»</text>
<text text-anchor="start" x="1009.12" y="-94.7" font-family="Helvetica,sans-Serif" font-weight="bold" font-size="14.00">BlueDogRequirements::navigationAndControl : NavigationAndControl</text>
</g>
<!-- n11&#45;&gt;n3 -->
<g id="edge9" class="edge">
<title>n11&#45;&gt;n3</title>
<path fill="none" stroke="#181818" stroke-dasharray="5,2" d="M1089.98,-122.95C1073.1,-127.6 1059.69,-133.5 1053.5,-141 1036.1,-162.06 1040.22,-194.54 1046.51,-217.59"/>
<polygon fill="#181818" stroke="#181818" points="1049.33,-226.89 1042.12,-218.63 1048.23,-223.28 1046.43,-217.32 1046.43,-217.32 1046.43,-217.32 1048.23,-223.28 1050.73,-216.02 1049.33,-226.89"/>
<text text-anchor="middle" x="1071.88" y="-143.65" font-family="Helvetica,sans-Serif" font-size="13.00">derive</text>
</g>
<!-- n11&#45;&gt;n7 -->
<g id="edge14" class="edge">
<title>n11&#45;&gt;n7</title>
<path fill="none" stroke="#181818" stroke-dasharray="5,2" d="M1325.12,-122.96C1362.96,-133.24 1405.85,-149.31 1439.25,-174 1486.65,-209.04 1484.32,-232.45 1516.25,-282 1535.45,-311.8 1530.29,-326.87 1556.25,-351 1561.33,-355.72 1567.16,-359.93 1573.26,-363.65"/>
<polygon fill="#181818" stroke="#181818" points="1581.93,-368.49 1571.01,-367.54 1578.63,-366.65 1573.2,-363.62 1573.2,-363.62 1573.2,-363.62 1578.63,-366.65 1575.4,-359.69 1581.93,-368.49"/>
<text text-anchor="middle" x="1523.67" y="-241.15" font-family="Helvetica,sans-Serif" font-size="13.00">derive</text>
</g>
<!-- n11&#45;&gt;n8 -->
<g id="edge18" class="edge">
<title>n11&#45;&gt;n8</title>
<path fill="none" stroke="#181818" stroke-dasharray="5,2" d="M1242.76,-122.79C1248.01,-134.55 1255.15,-150.52 1261.2,-164.04"/>
<polygon fill="#181818" stroke="#181818" points="1265.26,-173.13 1257.07,-165.84 1263.72,-169.68 1261.18,-164 1261.18,-164 1261.18,-164 1263.72,-169.68 1265.29,-162.16 1265.26,-173.13"/>
<text text-anchor="middle" x="1274.9" y="-143.65" font-family="Helvetica,sans-Serif" font-size="13.00">derive</text>
</g>
<!-- n12 -->
<g id="node13" class="node">
<title>n12</title>
<path fill="white" stroke="#181818" stroke-width="0.5" d="M1849.12,-123C1849.12,-123 1499.38,-123 1499.38,-123 1493.38,-123 1487.38,-117 1487.38,-111 1487.38,-111 1487.38,-99 1487.38,-99 1487.38,-93 1493.38,-87 1499.38,-87 1499.38,-87 1849.12,-87 1849.12,-87 1855.12,-87 1861.12,-93 1861.12,-99 1861.12,-99 1861.12,-111 1861.12,-111 1861.12,-117 1855.12,-123 1849.12,-123"/>
<text text-anchor="start" x="1643.5" y="-108.5" font-family="Helvetica,sans-Serif" font-style="italic" font-size="10.00">«requirement»</text>
<text text-anchor="start" x="1495.38" y="-94.7" font-family="Helvetica,sans-Serif" font-weight="bold" font-size="14.00">BlueDogRequirements::resetRecovery : ResetRecovery</text>
</g>
<!-- n12&#45;&gt;n7 -->
<g id="edge16" class="edge">
<title>n12&#45;&gt;n7</title>
<path fill="none" stroke="#181818" stroke-dasharray="5,2" d="M1654.63,-122.81C1649.72,-128.1 1645.06,-134.32 1642.25,-141 1611.35,-214.32 1618.08,-311.04 1623.99,-358.01"/>
<polygon fill="#181818" stroke="#181818" points="1625.32,-367.89 1619.52,-358.58 1624.81,-364.14 1623.98,-357.98 1623.98,-357.98 1623.98,-357.98 1624.81,-364.14 1628.44,-357.37 1625.32,-367.89"/>
<text text-anchor="middle" x="1639.86" y="-241.15" font-family="Helvetica,sans-Serif" font-size="13.00">derive</text>
</g>
<!-- n12&#45;&gt;n8 -->
<g id="edge19" class="edge">
<title>n12&#45;&gt;n8</title>
<path fill="none" stroke="#181818" stroke-dasharray="5,2" d="M1594.07,-123C1527.68,-137.07 1433.36,-157.06 1364.18,-171.73"/>
<polygon fill="#181818" stroke="#181818" points="1354.49,-173.78 1363.34,-167.3 1358.19,-173 1364.27,-171.71 1364.27,-171.71 1364.27,-171.71 1358.19,-173 1365.2,-176.11 1354.49,-173.78"/>
<text text-anchor="middle" x="1516.13" y="-143.65" font-family="Helvetica,sans-Serif" font-size="13.00">derive</text>
</g>
<!-- n13 -->
<g id="node14" class="node">
<title>n13</title>
<path fill="white" stroke="#181818" stroke-width="0.5" d="M2546.88,-36C2546.88,-36 2123.62,-36 2123.62,-36 2117.62,-36 2111.62,-30 2111.62,-24 2111.62,-24 2111.62,-12 2111.62,-12 2111.62,-6 2117.62,0 2123.62,0 2123.62,0 2546.88,0 2546.88,0 2552.88,0 2558.88,-6 2558.88,-12 2558.88,-12 2558.88,-24 2558.88,-24 2558.88,-30 2552.88,-36 2546.88,-36"/>
<text text-anchor="start" x="2304.5" y="-21.5" font-family="Helvetica,sans-Serif" font-style="italic" font-size="10.00">«requirement»</text>
<text text-anchor="start" x="2119.62" y="-7.7" font-family="Helvetica,sans-Serif" font-weight="bold" font-size="14.00">BlueDogRequirements::lowEnergyRecovery : LowEnergyRecovery</text>
</g>
<!-- n13&#45;&gt;n9 -->
<g id="edge24" class="edge">
<title>n13&#45;&gt;n9</title>
<path fill="none" stroke="#181818" stroke-dasharray="5,2" d="M2333.18,-35.75C2331.52,-49.5 2329.19,-69.5 2327.5,-87 2325.01,-112.74 2322.73,-142.12 2321.2,-163.07"/>
<polygon fill="#181818" stroke="#181818" points="2320.5,-172.84 2316.73,-162.54 2320.77,-169.06 2321.22,-162.86 2321.22,-162.86 2321.22,-162.86 2320.77,-169.06 2325.71,-163.18 2320.5,-172.84"/>
<text text-anchor="middle" x="2345.88" y="-100.15" font-family="Helvetica,sans-Serif" font-size="13.00">derive</text>
</g>
<!-- n13&#45;&gt;n10 -->
<g id="edge25" class="edge">
<title>n13&#45;&gt;n10</title>
<path fill="none" stroke="#181818" stroke-dasharray="5,2" d="M2384.64,-36C2424.35,-49.66 2480.29,-68.91 2522.52,-83.45"/>
<polygon fill="#181818" stroke="#181818" points="2531.79,-86.64 2520.87,-87.64 2528.22,-85.41 2522.34,-83.38 2522.34,-83.38 2522.34,-83.38 2528.22,-85.41 2523.8,-79.13 2531.79,-86.64"/>
<text text-anchor="middle" x="2491.91" y="-56.65" font-family="Helvetica,sans-Serif" font-size="13.00">derive</text>
</g>
<!-- n14 -->
<g id="node15" class="node">
<title>n14</title>
<path fill="white" stroke="#181818" stroke-width="0.5" d="M544.75,-123C544.75,-123 165.75,-123 165.75,-123 159.75,-123 153.75,-117 153.75,-111 153.75,-111 153.75,-99 153.75,-99 153.75,-93 159.75,-87 165.75,-87 165.75,-87 544.75,-87 544.75,-87 550.75,-87 556.75,-93 556.75,-99 556.75,-99 556.75,-111 556.75,-111 556.75,-117 550.75,-123 544.75,-123"/>
<text text-anchor="start" x="324.5" y="-108.5" font-family="Helvetica,sans-Serif" font-style="italic" font-size="10.00">«requirement»</text>
<text text-anchor="start" x="161.75" y="-94.7" font-family="Helvetica,sans-Serif" font-weight="bold" font-size="14.00">BlueDogRequirements::communications : Communications</text>
</g>
<!-- n14&#45;&gt;n5 -->
<g id="edge11" class="edge">
<title>n14&#45;&gt;n5</title>
<path fill="none" stroke="#181818" stroke-dasharray="5,2" d="M333.54,-122.77C301.64,-147.4 241.99,-193.46 205.73,-221.47"/>
<polygon fill="#181818" stroke="#181818" points="198,-227.43 203.17,-217.76 201,-225.12 205.92,-221.32 205.92,-221.32 205.92,-221.32 201,-225.12 208.67,-224.88 198,-227.43"/>
<text text-anchor="middle" x="328.1" y="-143.65" font-family="Helvetica,sans-Serif" font-size="13.00">derive</text>
</g>
<!-- n14&#45;&gt;n6 -->
<g id="edge12" class="edge">
<title>n14&#45;&gt;n6</title>
<path fill="none" stroke="#181818" stroke-dasharray="5,2" d="M381.91,-122.77C421.48,-147.66 495.86,-194.44 540.24,-222.35"/>
<polygon fill="#181818" stroke="#181818" points="548.47,-227.53 537.61,-226.01 545.27,-225.51 540,-222.2 540,-222.2 540,-222.2 545.27,-225.51 542.4,-218.39 548.47,-227.53"/>
<text text-anchor="middle" x="451.42" y="-143.65" font-family="Helvetica,sans-Serif" font-size="13.00">derive</text>
</g>
<!-- n14&#45;&gt;n7 -->
<g id="edge15" class="edge">
<title>n14&#45;&gt;n7</title>
<path fill="none" stroke="#181818" stroke-dasharray="5,2" d="M543.24,-122.96C628.71,-138.84 726.52,-169.38 798.25,-228 812.14,-239.35 801.34,-254.41 816.5,-264 879.12,-303.64 1416.78,-249.23 1483.25,-282 1518.67,-299.46 1507.38,-327.67 1539.25,-351 1546.3,-356.16 1554.21,-360.68 1562.33,-364.6"/>
<polygon fill="#181818" stroke="#181818" points="1571.18,-368.59 1560.22,-368.58 1567.73,-367.03 1562.07,-364.48 1562.07,-364.48 1562.07,-364.48 1567.73,-367.03 1563.91,-360.38 1571.18,-368.59"/>
<text text-anchor="middle" x="834.88" y="-241.15" font-family="Helvetica,sans-Serif" font-size="13.00">derive</text>
</g>
<!-- n14&#45;&gt;n8 -->
<g id="edge20" class="edge">
<title>n14&#45;&gt;n8</title>
<path fill="none" stroke="#181818" stroke-dasharray="5,2" d="M556.54,-122.43C559.8,-122.62 563.04,-122.82 566.25,-123 624.85,-126.36 1039.07,-120.98 1094.25,-141 1104.45,-144.7 1103.68,-151.39 1113.5,-156 1126.2,-161.96 1139.95,-166.92 1153.86,-171.05"/>
<polygon fill="#181818" stroke="#181818" points="1163.35,-173.72 1152.51,-175.35 1159.71,-172.7 1153.73,-171.01 1153.73,-171.01 1153.73,-171.01 1159.71,-172.7 1154.94,-166.68 1163.35,-173.72"/>
<text text-anchor="middle" x="1131.88" y="-143.65" font-family="Helvetica,sans-Serif" font-size="13.00">derive</text>
</g>
<!-- n15 -->
<g id="node16" class="node">
<title>n15</title>
<path fill="white" stroke="#181818" stroke-width="0.5" d="M971.38,-123C971.38,-123 587.12,-123 587.12,-123 581.12,-123 575.12,-117 575.12,-111 575.12,-111 575.12,-99 575.12,-99 575.12,-93 581.12,-87 587.12,-87 587.12,-87 971.38,-87 971.38,-87 977.38,-87 983.38,-93 983.38,-99 983.38,-99 983.38,-111 983.38,-111 983.38,-117 977.38,-123 971.38,-123"/>
<text text-anchor="start" x="748.5" y="-108.5" font-family="Helvetica,sans-Serif" font-style="italic" font-size="10.00">«requirement»</text>
<text text-anchor="start" x="583.12" y="-94.7" font-family="Helvetica,sans-Serif" font-weight="bold" font-size="14.00">BlueDogRequirements::ingressResponse : IngressResponse</text>
</g>
<!-- n15&#45;&gt;n8 -->
<g id="edge21" class="edge">
<title>n15&#45;&gt;n8</title>
<path fill="none" stroke="#181818" stroke-dasharray="5,2" d="M983.31,-122.41C1061.5,-129.2 1136.37,-136.52 1154.25,-141 1180.43,-147.56 1208.31,-159.01 1230.5,-169.3"/>
<polygon fill="#181818" stroke="#181818" points="1239.49,-173.56 1228.52,-173.34 1236.07,-171.94 1230.45,-169.28 1230.45,-169.28 1230.45,-169.28 1236.07,-171.94 1232.38,-165.21 1239.49,-173.56"/>
<text text-anchor="middle" x="1216.34" y="-143.65" font-family="Helvetica,sans-Serif" font-size="13.00">derive</text>
</g>
<!-- n16 -->
<g id="node17" class="node">
<title>n16</title>
<path fill="white" stroke="#181818" stroke-width="0.5" d="M2271.5,-123C2271.5,-123 1891,-123 1891,-123 1885,-123 1879,-117 1879,-111 1879,-111 1879,-99 1879,-99 1879,-93 1885,-87 1891,-87 1891,-87 2271.5,-87 2271.5,-87 2277.5,-87 2283.5,-93 2283.5,-99 2283.5,-99 2283.5,-111 2283.5,-111 2283.5,-117 2277.5,-123 2271.5,-123"/>
<text text-anchor="start" x="2050.5" y="-108.5" font-family="Helvetica,sans-Serif" font-style="italic" font-size="10.00">«requirement»</text>
<text text-anchor="start" x="1887" y="-94.7" font-family="Helvetica,sans-Serif" font-weight="bold" font-size="14.00">BlueDogRequirements::missionEvidence : MissionEvidence</text>
</g>
<!-- n16&#45;&gt;n7 -->
<g id="edge17" class="edge">
<title>n16&#45;&gt;n7</title>
<path fill="none" stroke="#181818" stroke-dasharray="5,2" d="M2080.18,-122.72C2076.98,-170.32 2066.84,-304.03 2053.25,-318 2017.99,-354.23 1901.26,-371.16 1799.04,-379.07"/>
<polygon fill="#181818" stroke="#181818" points="1789.14,-379.81 1798.78,-374.58 1792.91,-379.53 1799.11,-379.06 1799.11,-379.06 1799.11,-379.06 1792.91,-379.53 1799.45,-383.55 1789.14,-379.81"/>
<text text-anchor="middle" x="2089.42" y="-241.15" font-family="Helvetica,sans-Serif" font-size="13.00">derive</text>
</g>
<!-- n16&#45;&gt;n8 -->
<g id="edge22" class="edge">
<title>n16&#45;&gt;n8</title>
<path fill="none" stroke="#181818" stroke-dasharray="5,2" d="M1919.68,-123C1780.88,-137.6 1581.48,-158.57 1440.94,-173.36"/>
<polygon fill="#181818" stroke="#181818" points="1431.28,-174.38 1440.76,-168.85 1435.05,-173.98 1441.23,-173.33 1441.23,-173.33 1441.23,-173.33 1435.05,-173.98 1441.7,-177.8 1431.28,-174.38"/>
<text text-anchor="middle" x="1744" y="-143.65" font-family="Helvetica,sans-Serif" font-size="13.00">derive</text>
</g>
</g>
</svg>
